<svg width="530" height="512" viewBox="0 0 530 512" fill="none" xmlns="http://www.w3.org/2000/svg">
<path d="M260.213 512C403.494 512 519.645 496.843 519.645 478.146C519.645 459.448 403.494 444.291 260.213 444.291C116.933 444.291 0.780762 459.448 0.780762 478.146C0.780762 496.843 116.933 512 260.213 512Z" fill="#FF4C29"/>
<path opacity="0.5" d="M260.213 512C403.494 512 519.645 496.843 519.645 478.146C519.645 459.448 403.494 444.291 260.213 444.291C116.933 444.291 0.780762 459.448 0.780762 478.146C0.780762 496.843 116.933 512 260.213 512Z" fill="white"/>
<path d="M492.642 168.652C492.531 168.651 492.423 168.615 492.334 168.549C460.973 147.436 419.867 143.719 372.242 139.418C341.224 136.616 306.089 133.437 268.163 125.03C172.535 103.848 119.032 34.0352 118.506 33.326C118.418 33.2105 118.377 33.0658 118.392 32.9214C118.407 32.7769 118.476 32.6436 118.586 32.5483C118.708 32.4602 118.86 32.4229 119.009 32.4442C119.158 32.4655 119.293 32.5438 119.386 32.6627C119.924 33.3604 173.142 102.853 268.391 123.944C306.283 132.339 341.384 135.507 372.368 138.309C420.107 142.632 461.35 146.315 492.94 167.634C493.066 167.72 493.153 167.852 493.183 168.002C493.213 168.152 493.183 168.307 493.1 168.435C493.044 168.503 492.975 168.557 492.896 168.595C492.816 168.632 492.73 168.652 492.642 168.652Z" fill="#FF4C29"/>
<path d="M476.286 186.22C476.171 186.221 476.059 186.184 475.966 186.117C444.604 165.003 403.51 161.286 355.874 156.986C324.856 154.184 289.721 151.004 251.794 142.586C156.167 121.405 102.663 51.5912 102.137 50.8478C102.091 50.7883 102.057 50.72 102.037 50.647C102.018 50.5741 102.013 50.4979 102.024 50.4231C102.035 50.3483 102.06 50.2765 102.099 50.2119C102.139 50.1473 102.19 50.0912 102.252 50.0472C102.312 50.0021 102.38 49.9693 102.453 49.9507C102.526 49.9321 102.601 49.9279 102.676 49.9385C102.75 49.9492 102.822 49.9743 102.886 50.0126C102.951 50.0508 103.007 50.1015 103.052 50.1615C103.578 50.8592 156.808 120.341 252.046 141.443C289.938 149.838 325.039 153.006 356.023 155.808C403.762 160.131 445.005 163.814 476.595 185.133C476.721 185.219 476.808 185.351 476.838 185.501C476.868 185.65 476.838 185.806 476.755 185.934C476.707 186.017 476.639 186.087 476.557 186.137C476.475 186.187 476.382 186.215 476.286 186.22Z" fill="#FF4C29"/>
<path d="M459.921 203.776C459.806 203.777 459.693 203.741 459.6 203.673C428.239 182.56 387.145 178.843 339.509 174.542C308.491 171.74 273.355 168.56 235.429 160.143C139.802 138.915 86.2983 69.1474 85.7722 68.4383C85.7271 68.3782 85.6944 68.3099 85.6757 68.2371C85.6571 68.1644 85.653 68.0887 85.6636 68.0143C85.6742 67.94 85.6994 67.8684 85.7376 67.8038C85.7759 67.7392 85.8265 67.6828 85.8866 67.6377C85.9467 67.5926 86.015 67.5598 86.0878 67.5412C86.1605 67.5226 86.2362 67.5184 86.3106 67.5291C86.3849 67.5397 86.4564 67.5648 86.5211 67.6031C86.5857 67.6414 86.6421 67.692 86.6872 67.7521C87.2133 68.4497 140.442 137.931 235.681 159.033C273.573 167.428 308.685 170.596 339.657 173.398C387.397 177.722 428.64 181.405 460.229 202.724C460.355 202.807 460.442 202.937 460.472 203.085C460.502 203.233 460.472 203.387 460.389 203.513C460.34 203.592 460.271 203.658 460.189 203.704C460.107 203.75 460.014 203.775 459.921 203.776Z" fill="#FF4C29"/>
<path d="M443.552 221.321C443.438 221.326 443.326 221.294 443.232 221.229C411.871 200.116 370.777 196.399 323.14 192.098C292.134 189.285 256.987 186.117 219.061 177.699C123.434 156.517 69.9299 86.6922 69.4038 85.9945C69.3128 85.8732 69.2737 85.7207 69.2952 85.5705C69.3166 85.4204 69.3968 85.2849 69.5182 85.1939C69.6395 85.1029 69.792 85.0638 69.9422 85.0853C70.0923 85.1067 70.2278 85.1869 70.3188 85.3083C70.8449 86.0059 124.074 155.488 219.313 176.589C257.204 184.984 292.317 188.152 323.289 190.955C371.028 195.266 412.271 198.961 443.872 220.28C443.996 220.365 444.081 220.496 444.109 220.644C444.136 220.792 444.105 220.944 444.021 221.069C443.971 221.147 443.901 221.211 443.819 221.255C443.737 221.299 443.645 221.322 443.552 221.321Z" fill="#FF4C29"/>
<path d="M158.172 66.3112C158.172 66.3112 152.99 68.1068 154.74 69.2963C156.49 70.4858 162.3 85.8003 161.1 87.7904C159.899 89.7805 156.136 83.2155 153.94 85.4C151.744 87.5845 154.935 92.9601 158.32 92.5598C161.706 92.1595 163.296 88.7855 162.495 84.5537C161.694 80.3219 158.961 73.7225 158.618 72.2814C158.275 70.8403 159.819 70.0969 162.198 71.4808C164.576 72.8647 168.763 70.4858 169.963 67.901C171.164 65.3161 170.158 60.9471 170.158 60.9471C170.158 60.9471 170.947 63.1316 166.978 64.1267C163.01 65.1217 159.556 65.7164 158.172 66.3112Z" fill="#FF4C29"/>
<path d="M135.157 135.095C135.157 135.095 129.987 136.891 131.726 138.08C133.464 139.27 139.286 154.584 138.096 156.574C136.907 158.564 133.121 151.999 130.937 154.184C128.752 156.368 131.932 161.744 135.306 161.344C138.68 160.943 140.281 157.569 139.492 153.338C138.703 149.106 135.912 142.404 135.512 141.008C135.111 139.613 136.655 138.824 139.091 140.208C141.528 141.591 145.656 139.213 146.846 136.628C148.035 134.043 147.04 129.674 147.04 129.674C147.04 129.674 147.841 131.858 143.861 132.853C139.881 133.848 136.552 134.5 135.157 135.095Z" fill="#FF4C29"/>
<path d="M451.548 152.96C448.955 151.643 446.439 150.181 444.011 148.58C440.351 146.132 438.292 147.31 438.818 148.934C439.344 150.558 436.199 162.076 431.51 168.16C426.821 174.245 427.255 167.303 423.721 166.102C420.187 164.901 418.277 168.389 420.988 172.438C423.698 176.487 429.829 175.263 430.641 172.781C431.453 170.299 437.194 159.422 438.898 156.769C440.603 154.115 441.861 154.264 444.949 157.341C446.267 158.732 447.91 159.774 449.731 160.373C451.552 160.972 453.493 161.109 455.38 160.772C455.38 160.772 449.055 172.895 447.122 176.784C445.189 180.673 443.588 185.591 440.74 185.488C437.892 185.385 434.678 179.769 432.413 183.2C430.149 186.632 436.908 192.476 440.545 190.818C444.182 189.159 446.413 181.542 449.112 176.281C451.811 171.02 459.623 157.158 459.154 155.179C458.685 153.2 455.048 155.236 451.548 152.96Z" fill="#FF4C29"/>
<path d="M378.212 176.281C376.379 175.349 374.6 174.314 372.882 173.182C370.286 171.454 368.868 172.289 369.211 173.433C369.554 174.577 367.358 182.732 364.041 187.032C360.725 191.333 361.033 186.426 358.529 185.58C356.024 184.733 354.686 187.204 356.607 190.063C358.529 192.922 362.852 192.053 363.47 190.303C365.185 186.422 367.132 182.649 369.303 179.003C370.515 177.15 371.407 177.23 373.592 179.403C374.526 180.384 375.689 181.117 376.976 181.538C378.264 181.959 379.635 182.055 380.969 181.817C380.969 181.817 376.497 190.383 375.124 193.117C373.752 195.85 372.631 199.35 370.549 199.281C368.468 199.213 366.272 195.21 364.67 197.68C363.069 200.151 367.85 204.245 370.389 203.067C372.928 201.889 374.541 196.514 376.439 192.774C378.338 189.034 383.874 179.255 383.542 177.905C383.21 176.556 380.717 177.894 378.212 176.281Z" fill="#FF4C29"/>
<path d="M396.259 193.059C394.881 192.37 393.54 191.606 392.245 190.772C390.289 189.468 389.214 190.097 389.477 190.955C389.74 191.813 388.081 197.966 385.577 201.248C383.072 204.531 383.289 200.779 381.425 200.105C379.561 199.43 378.52 201.328 379.972 203.479C381.425 205.629 384.685 204.988 385.108 203.662C386.408 200.738 387.878 197.893 389.511 195.141C390.426 193.745 391.101 193.803 392.748 195.45C393.451 196.19 394.327 196.744 395.297 197.061C396.268 197.379 397.302 197.45 398.306 197.268C398.306 197.268 394.932 203.73 393.903 205.789C392.874 207.848 392.016 210.49 390.472 210.432C388.928 210.375 387.247 207.367 386.034 209.232C384.822 211.096 388.436 214.172 390.369 213.292C392.302 212.411 393.503 208.351 394.944 205.537C396.385 202.724 400.56 195.347 400.308 194.283C400.056 193.219 398.123 194.272 396.259 193.059Z" fill="#FF4C29"/>
<path d="M131.899 66.1738C130.075 65.2418 128.303 64.2109 126.592 63.0857C123.996 61.3472 122.577 62.1822 122.921 63.3259C123.264 64.4696 121.068 72.6244 117.751 76.9363C114.434 81.2481 114.743 76.3187 112.238 75.4723C109.733 74.626 108.395 77.1078 110.317 79.9557C112.238 82.8036 116.561 81.9458 117.179 80.1959C118.894 76.3152 120.842 72.5417 123.012 68.8959C124.224 67.043 125.116 67.1231 127.301 69.2962C128.225 70.2672 129.375 70.9954 130.647 71.4164C131.92 71.8373 133.277 71.938 134.598 71.7094C134.598 71.7094 130.115 80.276 128.754 83.0095C127.392 85.743 126.26 89.2428 124.179 89.1742C122.097 89.1056 119.901 85.1025 118.3 87.573C116.699 90.0434 121.479 94.138 124.018 92.9599C126.558 91.7819 128.17 86.4064 130.069 82.6664C131.967 78.9264 137.503 69.1361 137.171 67.7979C136.84 66.4597 134.369 67.7865 131.899 66.1738Z" fill="#FF4C29"/>
<path d="M496.727 291.249C496.613 291.248 496.501 291.212 496.407 291.146C460.643 267.059 413.773 262.827 359.503 257.921C324.15 254.718 284.085 251.058 240.806 241.508C183.837 228.927 140.49 201.146 114.161 180.101C85.625 157.284 70.3563 137.177 70.2076 136.982C70.1625 136.922 70.1297 136.854 70.1111 136.781C70.0925 136.709 70.0883 136.633 70.0989 136.558C70.1096 136.484 70.1347 136.413 70.173 136.348C70.2112 136.283 70.2619 136.227 70.3219 136.182C70.382 136.137 70.4504 136.104 70.5231 136.085C70.5959 136.067 70.6716 136.063 70.7459 136.073C70.8203 136.084 70.8918 136.109 70.9564 136.147C71.021 136.186 71.0775 136.236 71.1226 136.296C71.2712 136.491 86.4714 156.506 114.905 179.232C141.142 200.196 184.318 227.829 241.047 240.399C284.257 249.972 324.287 253.586 359.606 256.777C414.036 261.706 461.032 265.927 497.048 290.197C497.174 290.283 497.261 290.415 497.291 290.564C497.321 290.714 497.291 290.869 497.208 290.997C497.153 291.074 497.081 291.137 496.998 291.181C496.914 291.225 496.822 291.248 496.727 291.249Z" fill="#FF4C29"/>
<path d="M478.07 311.264C477.954 311.265 477.842 311.229 477.749 311.161C441.973 287.074 395.103 282.842 340.845 277.936C305.492 274.733 265.416 271.073 222.137 261.523C165.179 248.942 121.832 221.161 95.5031 200.116C66.967 177.299 51.6982 157.192 51.5381 156.998C51.4499 156.875 51.4126 156.724 51.434 156.574C51.4553 156.425 51.5336 156.29 51.6524 156.197C51.7738 156.106 51.9263 156.067 52.0764 156.088C52.2266 156.11 52.362 156.19 52.453 156.311C52.6017 156.506 67.8133 176.521 96.2465 199.247C122.472 220.212 165.66 247.844 222.389 260.414C265.599 269.987 305.629 273.601 340.948 276.792C395.366 281.721 442.374 285.942 478.378 310.212C478.482 310.279 478.561 310.377 478.604 310.493C478.647 310.608 478.651 310.735 478.617 310.853C478.582 310.971 478.51 311.075 478.411 311.149C478.313 311.224 478.193 311.264 478.07 311.264Z" fill="#FF4C29"/>
<path d="M459.416 331.279C459.301 331.279 459.189 331.243 459.096 331.176C423.32 307.044 376.45 302.858 322.168 297.951C286.816 294.749 246.751 291.089 203.472 281.539C146.503 268.958 103.155 241.176 76.8267 220.132C48.2335 197.314 33.0218 177.207 32.8732 177.013C32.8281 176.953 32.7953 176.885 32.7767 176.812C32.758 176.739 32.7539 176.663 32.7645 176.589C32.7752 176.515 32.8003 176.443 32.8386 176.379C32.8768 176.314 32.9275 176.257 32.9875 176.212C33.0476 176.167 33.116 176.135 33.1887 176.116C33.2615 176.097 33.3372 176.093 33.4115 176.104C33.4859 176.114 33.5574 176.14 33.622 176.178C33.6866 176.216 33.7431 176.267 33.7881 176.327C33.9368 176.521 49.137 196.536 77.5701 219.262C103.807 240.227 146.983 267.86 203.712 280.429C246.922 290.002 286.953 293.616 322.271 296.807C376.701 301.737 423.697 305.957 459.713 330.227C459.839 330.313 459.927 330.445 459.957 330.595C459.987 330.744 459.957 330.9 459.873 331.028C459.821 331.102 459.753 331.163 459.674 331.206C459.594 331.25 459.506 331.275 459.416 331.279Z" fill="#FF4C29"/>
<path d="M440.751 351.294C440.636 351.295 440.523 351.259 440.43 351.192C404.654 327.105 357.784 322.873 303.526 317.966C268.173 314.764 228.097 311.104 184.818 301.554C127.86 288.973 84.5129 261.191 58.1842 240.147C29.6481 217.329 14.3793 197.223 14.2192 197.028C14.1311 196.906 14.0938 196.754 14.1151 196.605C14.1364 196.455 14.2147 196.32 14.3336 196.227C14.4549 196.136 14.6074 196.097 14.7576 196.119C14.9077 196.14 15.0432 196.221 15.1342 196.342C15.2829 196.536 30.4945 216.552 58.9276 239.277C85.1534 260.242 128.341 287.875 185.07 300.444C228.28 310.017 268.31 313.631 303.629 316.822C358.047 321.752 405.055 325.972 441.071 350.242C441.195 350.33 441.28 350.463 441.308 350.612C441.336 350.762 441.304 350.916 441.22 351.043C441.168 351.12 441.098 351.183 441.016 351.226C440.934 351.27 440.843 351.294 440.751 351.294Z" fill="#FF4C29"/>
<path d="M129.551 243.372C129.551 243.372 123.65 245.419 125.685 246.803C127.721 248.187 134.309 265.617 132.948 267.893C131.587 270.169 127.23 262.678 124.782 265.171C122.334 267.665 125.926 273.784 129.769 273.326C133.612 272.869 135.487 269.026 134.538 264.256C133.589 259.487 130.455 251.79 129.963 250.2C129.471 248.61 131.324 247.707 134.046 249.296C136.768 250.886 141.526 248.153 142.887 245.213C144.248 242.274 143.116 237.276 143.116 237.276C143.116 237.276 144.019 239.769 139.49 240.901C134.961 242.034 131.164 242.697 129.551 243.372Z" fill="#FF4C29"/>
<path d="M391.378 245.42C391.378 245.42 385.487 247.467 387.523 248.851C389.559 250.235 396.147 267.665 394.786 269.93C393.425 272.194 389.067 264.714 386.62 267.208C384.172 269.701 387.763 275.831 391.606 275.374C395.449 274.916 397.325 271.062 396.364 266.304C395.403 261.546 392.281 253.837 391.789 252.248C391.297 250.658 393.15 249.754 395.872 251.344C398.594 252.934 403.352 250.2 404.713 247.261C406.074 244.322 404.942 239.324 404.942 239.324C404.942 239.324 405.846 241.817 401.317 242.949C396.787 244.081 392.967 244.745 391.378 245.42Z" fill="#FF4C29"/>
<path d="M363.481 303.098C363.481 303.098 357.579 305.145 359.627 306.529C361.674 307.913 368.239 325.343 366.878 327.631C365.517 329.918 361.216 322.415 358.712 324.909C356.207 327.402 359.855 333.521 363.71 333.063C367.564 332.606 369.371 328.763 368.468 323.994C367.564 319.224 364.385 311.527 363.893 309.937C363.401 308.347 365.254 307.444 367.976 309.034C370.698 310.623 375.467 307.89 376.828 304.95C378.189 302.011 377.046 297.013 377.046 297.013C377.046 297.013 377.961 299.506 373.42 300.639C368.879 301.771 365.071 302.469 363.481 303.098Z" fill="#FF4C29"/>
<path d="M99.6123 209.049C96.6609 207.56 93.7935 205.911 91.0229 204.108C86.8368 201.306 84.5494 202.644 85.0983 204.508C85.6473 206.372 82.1132 219.48 76.772 226.433C71.4308 233.387 71.9111 225.438 67.8852 224.077C63.8593 222.716 61.6747 226.708 64.7743 231.306C67.8738 235.904 74.8505 234.52 75.7655 231.695C76.6805 228.87 83.2455 216.472 85.1784 213.475C87.1113 210.478 88.6096 210.616 92.0408 214.127C93.5446 215.709 95.4176 216.892 97.4918 217.571C99.566 218.249 101.776 218.402 103.924 218.016C103.924 218.016 96.7644 231.786 94.5684 236.189C92.3725 240.593 90.5425 246.243 87.2829 246.128C84.0232 246.014 80.4205 239.563 77.7899 243.544C75.1593 247.524 82.9253 254.123 87.0656 252.236C91.2059 250.349 93.7678 241.668 96.833 235.663C99.8982 229.659 108.819 213.864 108.27 211.645C107.721 209.426 103.592 211.645 99.6123 209.049Z" fill="#FF4C29"/>
<path d="M433.934 274.928C431.846 273.862 429.819 272.682 427.861 271.394C424.91 269.415 423.286 270.364 423.675 271.68C424.064 272.995 421.57 282.271 417.785 287.177C413.999 292.084 414.353 286.48 411.505 285.519C408.658 284.558 407.114 287.383 409.298 290.631C411.483 293.879 416.435 292.919 417.075 290.906C419.033 286.479 421.256 282.175 423.732 278.016C425.104 275.911 426.134 276.003 428.627 278.485C429.691 279.603 431.016 280.44 432.484 280.919C433.951 281.398 435.515 281.505 437.033 281.23C437.033 281.23 431.967 291.032 430.377 294.12C428.787 297.208 427.529 301.222 425.219 301.142C422.908 301.062 420.335 296.499 418.505 299.324C416.675 302.149 422.142 306.804 425.07 305.465C427.998 304.127 429.805 297.985 431.932 293.742C434.06 289.499 440.407 278.325 440.03 276.724C439.653 275.122 436.759 276.758 433.934 274.928Z" fill="#FF4C29"/>
<path d="M454.477 294.051C452.902 293.25 451.375 292.36 449.902 291.386C447.672 289.899 446.471 290.62 446.745 291.603C447.02 292.587 445.155 299.609 442.307 303.292C439.46 306.975 439.711 302.766 437.572 302.034C435.434 301.302 434.256 303.441 435.914 305.888C437.572 308.336 441.278 307.604 441.77 306.106C443.248 302.768 444.925 299.522 446.791 296.384C447.82 294.794 448.598 294.863 450.474 296.739C451.276 297.581 452.275 298.211 453.381 298.572C454.487 298.933 455.665 299.014 456.81 298.809C456.81 298.809 452.967 306.174 451.789 308.519C450.611 310.864 449.65 313.883 447.912 313.814C446.173 313.746 444.229 310.315 442.856 312.442C441.484 314.569 445.59 318.081 447.797 317.017C450.005 315.953 451.366 311.378 453.001 308.176C454.637 304.973 459.395 296.556 459.109 295.355C458.823 294.154 456.604 295.435 454.477 294.051Z" fill="#FF4C29"/>
<path d="M85.4143 174.485C83.3249 173.418 81.2973 172.234 79.3411 170.939C76.3788 168.961 74.7662 169.91 75.1436 171.225C75.521 172.541 73.0391 181.816 69.2648 186.734C65.4905 191.652 65.8336 186.025 62.9743 185.065C60.115 184.104 58.5824 186.929 60.7783 190.177C62.9743 193.425 67.9038 192.464 68.5557 190.451C70.5068 186.025 72.7299 181.724 75.2122 177.573C76.5847 175.457 77.6026 175.549 80.0959 178.031C81.1597 179.149 82.485 179.986 83.9524 180.465C85.4199 180.944 86.9834 181.051 88.5023 180.776C88.5023 180.776 83.4013 190.543 81.8458 193.665C80.2904 196.788 78.998 200.768 76.6876 200.688C74.3773 200.608 71.8153 196.044 69.9854 198.869C68.1554 201.694 73.611 206.349 76.5389 205.011C79.4669 203.673 81.274 197.543 83.4013 193.288C85.5287 189.033 91.8764 177.87 91.4989 176.281C91.1215 174.691 88.2279 176.315 85.4143 174.485Z" fill="#FF4C29"/>
<path d="M200.934 302.96C200.934 302.96 206.16 444.451 200.934 470.723C195.707 496.994 173.347 498.973 122.096 495.038C70.8456 491.104 -4.73203 483.178 29.4312 469.453C63.5944 455.728 164.757 458.942 156.214 467.486C147.67 476.03 100.377 473.399 86.5834 468.149C72.79 462.9 141.757 445.812 178.551 450.41C215.344 455.008 235.737 471.432 324.388 494.421C413.038 517.41 477.453 491.79 475.486 474.062C473.519 456.335 417.682 455.614 397.312 455.614" stroke="#263238" stroke-width="2" stroke-linecap="round" stroke-linejoin="round"/>
<path d="M302.724 383.296L330.643 375.313L417.132 381.466L401.097 389.998L302.724 383.296Z" fill="#666666" stroke="#263238" stroke-linecap="round" stroke-linejoin="round"/>
<path d="M417.135 381.466L416.449 473.479L399.568 487.261L401.1 389.998L417.135 381.466Z" fill="#2B2B2B" stroke="#263238" stroke-linecap="round" stroke-linejoin="round"/>
<path d="M305.927 472.747L307.242 475.755L312.126 476.498L314.882 473.868L305.927 472.747Z" fill="#263238" stroke="#263238" stroke-linecap="round" stroke-linejoin="round"/>
<path d="M388.096 485.328L389.399 488.336L394.283 489.08L397.04 486.449L388.096 485.328Z" fill="#263238" stroke="#263238" stroke-linecap="round" stroke-linejoin="round"/>
<path d="M302.727 383.296L301.389 471.786L399.567 487.261L401.099 389.998L302.727 383.296Z" fill="#404040" stroke="#263238" stroke-linecap="round" stroke-linejoin="round"/>
<path d="M310.537 391.657L309.416 465.919L391.787 478.9L393.08 397.284L310.537 391.657Z" fill="black" stroke="#263238" stroke-linecap="round" stroke-linejoin="round"/>
<path d="M314.198 464.318L391.823 476.556L393.081 397.284L315.285 391.977L314.198 464.318Z" fill="#263238" stroke="#263238" stroke-linecap="round" stroke-linejoin="round"/>
<path d="M315.08 406.09L392.831 413.25L393.083 397.284L315.286 391.977L315.08 406.09Z" fill="#FF4C29" stroke="#263238" stroke-linecap="round" stroke-linejoin="round"/>
<path d="M328.402 399.091C328.402 399.826 328.184 400.545 327.776 401.156C327.368 401.767 326.787 402.244 326.108 402.525C325.429 402.806 324.681 402.88 323.96 402.737C323.239 402.593 322.577 402.239 322.057 401.719C321.537 401.199 321.183 400.537 321.04 399.816C320.896 399.095 320.97 398.348 321.251 397.668C321.532 396.989 322.009 396.409 322.62 396C323.231 395.592 323.95 395.374 324.685 395.374C325.174 395.372 325.658 395.467 326.11 395.654C326.561 395.84 326.972 396.114 327.317 396.459C327.663 396.805 327.936 397.215 328.123 397.667C328.309 398.118 328.404 398.602 328.402 399.091Z" fill="#263238" stroke="#263238" stroke-linecap="round" stroke-linejoin="round"/>
<path d="M338.502 403.872C340.555 403.872 342.219 402.207 342.219 400.154C342.219 398.101 340.555 396.437 338.502 396.437C336.449 396.437 334.785 398.101 334.785 400.154C334.785 402.207 336.449 403.872 338.502 403.872Z" fill="#263238" stroke="#263238" stroke-linecap="round" stroke-linejoin="round"/>
<path d="M356.026 401.218C356.026 401.953 355.808 402.672 355.4 403.283C354.991 403.895 354.411 404.371 353.731 404.652C353.052 404.934 352.305 405.007 351.584 404.864C350.863 404.72 350.2 404.366 349.681 403.847C349.161 403.327 348.807 402.664 348.663 401.943C348.52 401.222 348.593 400.475 348.875 399.796C349.156 399.116 349.633 398.536 350.244 398.127C350.855 397.719 351.574 397.501 352.309 397.501C352.797 397.499 353.282 397.595 353.733 397.781C354.185 397.967 354.595 398.241 354.941 398.586C355.286 398.932 355.56 399.342 355.746 399.794C355.932 400.246 356.028 400.73 356.026 401.218Z" fill="#263238" stroke="#263238" stroke-linecap="round" stroke-linejoin="round"/>
<path d="M369.84 402.282C369.84 403.017 369.622 403.736 369.214 404.347C368.805 404.958 368.225 405.435 367.545 405.716C366.866 405.997 366.119 406.071 365.398 405.928C364.677 405.784 364.014 405.43 363.495 404.91C362.975 404.39 362.621 403.728 362.477 403.007C362.334 402.286 362.407 401.539 362.689 400.859C362.97 400.18 363.447 399.6 364.058 399.191C364.669 398.783 365.388 398.565 366.123 398.565C366.612 398.563 367.096 398.658 367.547 398.845C367.999 399.031 368.409 399.305 368.755 399.65C369.1 399.996 369.374 400.406 369.56 400.858C369.747 401.309 369.842 401.793 369.84 402.282Z" fill="#263238" stroke="#263238" stroke-linecap="round" stroke-linejoin="round"/>
<path d="M341.441 380.883V378.595L345.73 377.497L377.023 379.693L376.657 381.889L373.637 383.284L341.441 380.883Z" fill="#263238"/>
<path d="M307.37 355.229C307.37 355.229 300.691 366.929 301.526 369.857C302.361 372.785 316.154 375.29 322.422 379.464C328.689 383.639 334.534 384.897 338.297 383.639C342.06 382.381 345.399 382.804 343.729 378.206C342.06 373.608 337.039 374.455 333.287 372.362C329.536 370.269 319.059 359.197 318.224 357.939C317.389 356.681 307.37 355.229 307.37 355.229Z" fill="#FF4C29" stroke="#263238" stroke-linecap="round" stroke-linejoin="round"/>
<path d="M319.598 359.849C319.598 359.849 317.483 364.081 316.076 364.424" stroke="#263238" stroke-linecap="round" stroke-linejoin="round"/>
<path d="M322.067 362.32C322.067 362.32 322.067 366.54 319.951 367.604" stroke="#263238" stroke-linecap="round" stroke-linejoin="round"/>
<path d="M326.287 366.895C326.287 366.895 326.996 367.947 324.88 369.708" stroke="#263238" stroke-linecap="round" stroke-linejoin="round"/>
<path d="M330.176 370.063C330.176 370.063 329.821 370.418 327.705 372.179" stroke="#263238" stroke-linecap="round" stroke-linejoin="round"/>
<path d="M334.486 372.911C333.85 373.316 333.299 373.841 332.862 374.455C331.708 375.945 330.857 377.647 330.357 379.464C325.71 376.055 320.653 373.242 315.306 371.092C310.983 369.294 306.508 367.886 301.935 366.883C301.56 367.823 301.418 368.839 301.524 369.846C302.359 372.762 316.152 375.278 322.42 379.453C328.687 383.627 334.532 384.886 338.295 383.627C342.057 382.369 345.397 382.793 343.727 378.195C342.229 374.089 338.043 374.318 334.486 372.911Z" fill="white" stroke="#263238" stroke-linecap="round" stroke-linejoin="round"/>
<path d="M182.575 184.527L176.719 212.891L179.875 212.434L187.527 186.78L182.575 184.527Z" fill="#263238" stroke="#263238" stroke-linecap="round" stroke-linejoin="round"/>
<path d="M229.917 475.229C230.569 477.668 231.474 480.033 232.616 482.286C233.977 484.459 253.626 494.867 252.528 499.739C252.116 501.626 250.618 504.382 241.617 504.931C232.616 505.48 223.981 498.744 219.795 496.468C213.264 492.934 212.155 491.287 212.932 487.741C213.71 484.196 217.027 472.186 217.027 472.186C221.214 473.62 225.531 474.639 229.917 475.229Z" fill="#FF4C29" stroke="#263238" stroke-linecap="round" stroke-linejoin="round"/>
<path d="M222.403 482.4C223.629 481.417 225.041 480.692 226.555 480.27C228.068 479.847 229.652 479.735 231.21 479.941" stroke="#263238" stroke-linecap="round" stroke-linejoin="round"/>
<path d="M224.86 484.516C224.86 484.516 229.092 481.451 232.615 482.286" stroke="#263238" stroke-linecap="round" stroke-linejoin="round"/>
<path d="M228.385 487.341C228.385 487.341 233.669 484.162 236.837 485.923" stroke="#263238" stroke-linecap="round" stroke-linejoin="round"/>
<path d="M232.615 490.154C232.615 490.154 237.19 487.684 240.712 488.748" stroke="#263238" stroke-linecap="round" stroke-linejoin="round"/>
<path d="M220.058 482.412C220.058 484.447 219.086 486.106 217.885 486.106C216.684 486.106 215.701 484.447 215.701 482.412C215.701 480.376 216.673 478.729 217.885 478.729C219.098 478.729 220.058 480.387 220.058 482.412Z" fill="white" stroke="#263238" stroke-linecap="round" stroke-linejoin="round"/>
<path d="M248.247 493.597C245.822 493.597 242.162 494.043 240.241 496.468C237.233 500.288 236.97 501.386 236.97 501.386C232.136 497.955 227.029 494.926 221.701 492.328C218.468 490.875 215.623 488.681 213.398 485.923C213.215 486.621 213.066 487.227 212.963 487.696C212.151 491.241 213.26 492.888 219.825 496.422C224.011 498.71 232.647 505.424 241.648 504.886C250.649 504.348 252.147 501.581 252.559 499.693C252.891 498.127 250.992 495.908 248.247 493.597Z" fill="white" stroke="#263238" stroke-linecap="round" stroke-linejoin="round"/>
<path d="M242.85 97.3975C242.85 97.3975 262.522 99.8565 265.725 106.879C268.927 113.902 281.886 170.814 282.938 173.97C283.99 177.127 310.33 182.754 326.148 182.754C341.966 182.754 335.63 184.515 330.723 187.672C325.816 190.829 311.051 194.352 295.942 196.456C280.834 198.56 270.654 197.154 266.091 190.486C261.527 183.818 254.791 151.496 250.227 129.765C245.664 108.034 242.85 97.3975 242.85 97.3975Z" fill="white" stroke="#263238" stroke-linecap="round" stroke-linejoin="round"/>
<path d="M265.681 106.891C262.525 99.8683 242.807 97.4092 242.807 97.4092C242.807 97.4092 245.609 107.943 250.184 129.731C251.671 136.845 253.398 145.091 255.193 153.2C256.669 152.96 258.384 152.64 260.363 152.205C265.247 151.142 271.526 147.528 275.746 144.817C271.846 128.45 267.363 110.619 265.681 106.891Z" fill="#FF4C29" stroke="#263238" stroke-linecap="round" stroke-linejoin="round"/>
<path d="M253.798 146.613C254.645 150.558 255.525 154.55 256.418 158.439C263.902 156.752 270.843 153.212 276.604 148.145C275.804 144.84 274.98 141.42 274.145 138.035C268.135 142.46 261.163 145.399 253.798 146.613Z" fill="#263238" stroke="#263238" stroke-linecap="round" stroke-linejoin="round"/>
<path d="M351.756 169.853C351.756 169.853 355.462 161.846 355.862 161.378C356.263 160.909 365.607 160.234 363.148 163.493C362.828 163.905 356.983 164.706 356.983 164.706L355.588 167.988L351.756 169.853Z" fill="white" stroke="#263238" stroke-linecap="round" stroke-linejoin="round"/>
<path d="M359.11 247.741C346.826 236.143 301.854 234.016 283.623 230.528C279.209 229.681 275.697 228.915 272.884 228.24C267.531 203.364 254.332 155.499 252.011 129.708C251.439 123.337 248.957 93.6576 237.142 96.5398C214.268 102.133 174.237 113.547 172.83 142.495C171.686 165.816 181.374 190.612 185.651 213.292C187.779 224.615 189.769 234.119 191.793 242.057H191.622C191.622 242.057 210.939 329.529 210.939 343.929C210.939 358.328 208.126 366.06 207.428 387.139C206.73 408.218 215.926 475.206 218.03 476.578C220.135 477.951 224.698 477.985 226.814 477.276C228.93 476.567 229.273 477.631 229.971 475.172C230.669 472.713 239.121 424.665 241.557 373.734C243.993 322.804 247.825 284.912 262.922 274.378C278.019 263.845 339.151 265.229 339.552 272.972C339.952 280.715 305.011 353.822 306.429 355.229C307.848 356.635 315.579 358.74 317.318 358.042C319.056 357.345 352.087 303.944 362.632 285.678C373.177 267.413 371.405 259.327 359.11 247.741Z" fill="#FF4C29" stroke="#263238" stroke-linecap="round" stroke-linejoin="round"/>
<path d="M237.087 96.5973C224.597 99.6511 206.995 104.455 193.362 112.884C198.829 120.81 213.652 141.031 224.334 143.627C236.915 146.681 242.302 110.78 241.147 96.9519C239.879 96.3533 238.439 96.2275 237.087 96.5973Z" fill="#263238" stroke="#263238" stroke-linecap="round" stroke-linejoin="round"/>
<path d="M237.534 90.8783C237.534 90.8783 245.631 153.44 268.14 185.808L274.43 190.314C275.574 190.314 254.369 142.483 244.693 90.8097L237.534 90.8783Z" fill="#263238" stroke="#263238" stroke-linecap="round" stroke-linejoin="round"/>
<path d="M236.079 104.786C234.776 103.059 233.483 101.721 232.317 100.12C228.782 95.2245 230.143 84.7937 234.169 81.1566C233.831 80.4084 233.425 79.6925 232.957 79.0178C228.382 72.7502 210.334 75.9526 205.713 81.0994C206.892 83.1647 207.902 85.3219 208.733 87.55C209.877 91.0499 210.849 94.9843 210.105 98.6785C209.156 103.459 205.279 105.198 201.928 108.183C205.748 114.691 216.396 129.376 221.108 131.618C226.701 134.34 234.352 111.465 236.079 104.786Z" fill="white" stroke="#263238" stroke-linecap="round" stroke-linejoin="round"/>
<path d="M230.874 86.0863C231.554 84.2629 232.745 82.6744 234.305 81.5114C239.589 78.206 252.491 73.9055 255.796 67.6265C256.127 64.2451 255.769 60.8319 254.745 57.5924C253.721 54.353 252.051 51.3545 249.837 48.7778C242.243 39.525 227.683 34.5841 215.948 38.4042C200.531 43.4594 197.157 57.7103 200.314 68.3013C202.086 74.2487 205.163 80.2533 207.176 84.588C210.504 85.4572 215.765 85.869 221.793 86.1549C224.819 86.298 227.85 86.2751 230.874 86.0863Z" fill="#263238" stroke="#263238" stroke-linecap="round" stroke-linejoin="round"/>
<path d="M220.002 79.4411C220.002 79.4411 217.817 67.6378 213.242 67.6378C208.667 67.6378 206.54 78.6062 208.667 84.0961C210.795 89.586 214.764 87.4472 214.764 87.4472C216.27 90.9909 218.068 94.4033 220.139 97.6493C222.587 101 230.73 108.949 240.097 108.949C244.055 108.949 249.544 88.8311 250.768 80.9051C251.992 72.979 251.981 69.6394 249.853 63.2345C247.726 56.8296 238.873 60.7983 231.256 66.2768C226.554 69.754 222.706 74.2559 220.002 79.4411Z" fill="white" stroke="#263238" stroke-linecap="round" stroke-linejoin="round"/>
<path d="M225.488 65.0072C225.488 65.0072 235.198 62.1936 243.788 71.9611C252.137 81.4655 261.939 75.9985 265.393 70.52C270.837 61.8963 277.208 67.775 277.208 57.2642C277.208 46.7533 270.162 45.9527 262.934 47.9199C255.705 49.8871 259.651 37.409 249.792 36.0937C239.933 34.7784 237.314 40.6686 234.684 42.6702" fill="#263238"/>
<path d="M225.488 65.0072C225.488 65.0072 235.198 62.1936 243.788 71.9611C252.137 81.4655 261.939 75.9985 265.393 70.52C270.837 61.8963 277.208 67.775 277.208 57.2642C277.208 46.7533 270.162 45.9527 262.934 47.9199C255.705 49.8871 259.651 37.409 249.792 36.0937C239.933 34.7784 237.314 40.6686 234.684 42.6702" stroke="#263238" stroke-linecap="round" stroke-linejoin="round"/>
<path d="M250.46 74.9233C250.46 74.9233 247.898 75.1291 247.68 77.062C247.463 78.995 248.744 86.0289 248.321 89.6431C247.898 93.2573 243.197 92.4223 240.841 90.5009" fill="white"/>
<path d="M250.46 74.9233C250.46 74.9233 247.898 75.1291 247.68 77.062C247.463 78.995 248.744 86.0289 248.321 89.6431C247.898 93.2573 243.197 92.4223 240.841 90.5009" stroke="#263238" stroke-linecap="round" stroke-linejoin="round"/>
<path d="M239.819 73.4249C239.819 73.4249 234.101 69.1588 230.67 73.8481L239.819 73.4249Z" fill="white"/>
<path d="M239.819 73.4249C239.819 73.4249 234.101 69.1588 230.67 73.8481" stroke="#263238" stroke-linecap="round" stroke-linejoin="round"/>
<path d="M238.918 76.8448L238.712 79.6241C238.712 79.6241 234.011 81.3283 231.026 78.549" fill="white"/>
<path d="M238.918 76.8448L238.712 79.6241C238.712 79.6241 234.011 81.3283 231.026 78.549" stroke="#263238" stroke-linecap="round" stroke-linejoin="round"/>
<path d="M230.202 264.599C220.013 269.099 208.995 271.417 197.857 271.405C203.495 298.237 210.884 335.076 210.884 343.986C210.884 358.385 208.07 366.117 207.373 387.196C206.675 408.275 215.871 475.263 217.975 476.636C220.08 478.008 224.643 478.042 226.759 477.333C228.875 476.624 229.218 477.688 229.916 475.229C230.613 472.77 239.065 424.722 241.502 373.791C243.938 322.861 247.769 284.969 262.866 274.436C277.964 263.902 325.165 274.904 325.52 282.625C325.875 290.345 305.013 353.822 306.431 355.229C307.849 356.635 315.581 358.74 317.32 358.042C319.058 357.345 352.089 303.944 362.634 285.678C373.179 267.413 371.406 259.373 359.111 247.741C346.816 236.109 301.856 234.016 283.625 230.528C279.21 229.681 275.699 228.915 272.886 228.24C269.832 232.278 257.251 252.659 230.202 264.599Z" fill="#263238"/>
<mask id="mask0_195_3348" style="mask-type:luminance" maskUnits="userSpaceOnUse" x="197" y="228" width="173" height="250">
<path d="M230.202 264.599C220.013 269.099 208.995 271.417 197.857 271.405C203.496 298.237 210.884 335.076 210.884 343.986C210.884 358.385 208.071 366.117 207.373 387.196C206.675 408.275 215.871 475.263 217.975 476.636C220.08 478.008 224.643 478.042 226.759 477.333C228.875 476.624 229.218 477.688 229.916 475.229C230.614 472.77 239.066 424.722 241.502 373.791C243.938 322.861 247.769 284.969 262.867 274.436C277.964 263.902 325.166 274.904 325.52 282.625C325.875 290.345 305.013 353.822 306.431 355.229C307.85 356.635 315.581 358.74 317.32 358.042C319.058 357.345 352.089 303.944 362.634 285.678C373.18 267.413 371.407 259.373 359.112 247.741C346.817 236.109 301.856 234.016 283.625 230.528C279.211 229.681 275.699 228.915 272.886 228.24C269.832 232.278 257.251 252.659 230.202 264.599Z" fill="white"/>
</mask>
<g mask="url(#mask0_195_3348)">
<path d="M325.521 282.625C325.521 282.625 344.667 294.257 353.222 295.034" stroke="#6B6B6B" stroke-linecap="round" stroke-linejoin="round"/>
<path d="M313.594 276.38C313.594 276.38 329.137 292.701 340.792 299.701" stroke="#6B6B6B" stroke-linecap="round" stroke-linejoin="round"/>
<path d="M315.925 288.812C315.925 288.812 327.58 307.467 337.656 312.133" stroke="#6B6B6B" stroke-linecap="round" stroke-linejoin="round"/>
<path d="M266.195 273.281C266.195 273.281 273.961 264.726 305.082 259.293" stroke="#6B6B6B" stroke-linecap="round" stroke-linejoin="round"/>
<path d="M291.84 266.281C291.84 266.281 312.038 263.993 322.915 262.392" stroke="#6B6B6B" stroke-linecap="round" stroke-linejoin="round"/>
<path d="M244.395 359.529C244.395 359.529 233.518 398.416 225.752 421.691" stroke="#6B6B6B" stroke-linecap="round" stroke-linejoin="round"/>
<path d="M238.998 398.382C235.157 416.007 227.763 432.663 217.267 447.334" stroke="#6B6B6B" stroke-linecap="round" stroke-linejoin="round"/>
</g>
<path d="M230.202 264.599C220.013 269.099 208.995 271.417 197.857 271.405C203.495 298.237 210.884 335.076 210.884 343.986C210.884 358.385 208.07 366.117 207.373 387.196C206.675 408.275 215.871 475.263 217.975 476.636C220.08 478.008 224.643 478.042 226.759 477.333C228.875 476.624 229.218 477.688 229.916 475.229C230.613 472.77 239.065 424.722 241.502 373.791C243.938 322.861 247.769 284.969 262.866 274.436C277.964 263.902 325.165 274.904 325.52 282.625C325.875 290.345 305.013 353.822 306.431 355.229C307.849 356.635 315.581 358.74 317.32 358.042C319.058 357.345 352.089 303.944 362.634 285.678C373.179 267.413 371.406 259.373 359.111 247.741C346.816 236.109 301.856 234.016 283.625 230.528C279.21 229.681 275.699 228.915 272.886 228.24C269.832 232.278 257.251 252.659 230.202 264.599Z" stroke="#263238" stroke-linecap="round" stroke-linejoin="round"/>
<path d="M194.505 296.452L196.621 301.313C196.848 301.827 197.215 302.266 197.681 302.58C198.146 302.893 198.691 303.069 199.252 303.086L203.255 303.189C203.859 303.207 204.454 303.04 204.96 302.711C205.467 302.382 205.862 301.906 206.091 301.348L208.379 295.698L194.505 296.452Z" fill="white" stroke="#263238" stroke-linecap="round" stroke-linejoin="round"/>
<path d="M282.86 206.578C283.764 204.451 280.058 197.829 279.132 196.068C271.126 180.947 248.503 180.593 238.541 193.78C234.915 198.584 232.971 204.771 228.247 208.454C218.114 216.334 203.646 206.727 192.792 205.503C169.151 202.838 152.944 225.587 153.573 247.238C154.156 267.402 166.966 286.96 185.243 295.515C186.158 295.95 187.096 296.35 188.034 296.716C209.444 305.168 229.951 294.897 241.789 276.426C245.335 270.879 248.388 265.046 251.98 259.533C253.878 256.628 256.292 253.895 259.505 252.602C265.887 250.017 274.042 251.973 280.882 250.04C285.617 248.702 292.605 246.277 294.858 241.371C297.34 235.938 294.16 235.778 289.608 236.052C285.056 236.327 279.864 232.072 279.372 224.009C278.88 215.946 282.86 206.578 282.86 206.578Z" fill="#757575" stroke="#263238" stroke-linecap="round" stroke-linejoin="round"/>
<path d="M279.566 207.802C280.47 205.686 276.764 199.052 275.849 197.302C267.9 182.182 245.22 181.828 235.246 195.015C231.632 199.819 229.688 206.006 224.953 209.689C214.819 217.558 200.363 207.962 189.497 206.738C165.856 204.073 149.661 226.822 150.29 248.473C150.873 268.637 163.683 288.195 181.949 296.75C182.875 297.184 183.801 297.585 184.751 297.951C206.161 306.403 226.668 296.121 238.506 277.649C242.04 272.114 245.105 266.281 248.697 260.768C250.584 257.863 253.009 255.129 256.222 253.826C262.593 251.252 270.759 253.208 277.587 251.275C282.334 249.937 289.322 247.512 291.564 242.606C294.057 237.173 290.878 237.013 286.314 237.287C281.751 237.562 276.569 233.307 276.089 225.244C275.609 217.18 279.566 207.813 279.566 207.802Z" fill="#757575"/>
<mask id="mask1_195_3348" style="mask-type:luminance" maskUnits="userSpaceOnUse" x="150" y="185" width="143" height="116">
<path d="M279.566 207.802C280.47 205.686 276.764 199.052 275.849 197.302C267.9 182.182 245.22 181.828 235.246 195.015C231.632 199.819 229.688 206.006 224.953 209.689C214.819 217.558 200.363 207.962 189.497 206.738C165.856 204.073 149.661 226.822 150.29 248.473C150.873 268.637 163.683 288.195 181.949 296.75C182.875 297.184 183.801 297.585 184.751 297.951C206.161 306.403 226.668 296.121 238.506 277.649C242.04 272.114 245.105 266.281 248.697 260.768C250.584 257.863 253.009 255.129 256.222 253.826C262.593 251.252 270.759 253.208 277.587 251.275C282.334 249.937 289.322 247.512 291.564 242.606C294.057 237.173 290.878 237.013 286.314 237.287C281.751 237.562 276.569 233.307 276.089 225.244C275.609 217.18 279.566 207.813 279.566 207.802Z" fill="white"/>
</mask>
<g mask="url(#mask1_195_3348)">
<path opacity="0.19" d="M289.576 236.132C285.001 236.418 279.831 232.152 279.339 224.089C278.847 216.025 282.862 206.635 282.862 206.635C283.766 204.508 280.06 197.886 279.133 196.124C272.694 183.864 256.568 181.313 245.382 187.832L202.332 299.769C218.276 300.181 232.629 290.791 241.756 276.506C245.302 270.959 248.356 265.126 251.947 259.613C253.834 256.708 256.259 253.974 259.473 252.682C265.855 250.097 274.009 252.053 280.849 250.12C285.584 248.782 292.572 246.357 294.825 241.45C297.307 235.961 294.128 235.8 289.576 236.132Z" fill="white"/>
<path opacity="0.19" d="M205.739 195.393C207.796 194.203 210.01 193.31 212.316 192.739C204.561 185.488 192.049 184.733 182.865 190.063L139.803 302C150.691 302.274 160.836 297.985 169.083 290.688L205.739 195.393Z" fill="white"/>
</g>
<path d="M279.566 207.802C280.47 205.686 276.764 199.052 275.849 197.302C267.9 182.182 245.22 181.828 235.246 195.015C231.632 199.819 229.688 206.006 224.953 209.689C214.819 217.558 200.363 207.962 189.497 206.738C165.856 204.073 149.661 226.822 150.29 248.473C150.873 268.637 163.683 288.195 181.949 296.75C182.875 297.184 183.801 297.585 184.751 297.951C206.161 306.403 226.668 296.121 238.506 277.649C242.04 272.114 245.105 266.281 248.697 260.768C250.584 257.863 253.009 255.129 256.222 253.826C262.593 251.252 270.759 253.208 277.587 251.275C282.334 249.937 289.322 247.512 291.564 242.606C294.057 237.173 290.878 237.013 286.314 237.287C281.751 237.562 276.569 233.307 276.089 225.244C275.609 217.18 279.566 207.813 279.566 207.802Z" stroke="#263238" stroke-linecap="round" stroke-linejoin="round"/>
<path d="M261.539 213.818L266.743 226.273L394.041 160.989L389.591 151.405L261.539 213.818Z" fill="#263238" stroke="#263238" stroke-linecap="round" stroke-linejoin="round"/>
<path d="M277.564 217.066C277.564 217.066 253.168 255.198 244.773 259.007C236.378 262.815 230.682 250.395 235.818 242.114C240.953 233.833 277.564 217.066 277.564 217.066Z" fill="white" stroke="#263238" stroke-linecap="round" stroke-linejoin="round"/>
<path d="M272.332 226.448L264.072 209.43C263.451 208.151 261.912 207.618 260.633 208.238L253.822 211.544C252.543 212.165 252.01 213.705 252.63 214.983L260.89 232.002C261.511 233.28 263.051 233.814 264.329 233.193L271.141 229.887C272.419 229.267 272.953 227.727 272.332 226.448Z" fill="white" stroke="#263238" stroke-linecap="round" stroke-linejoin="round"/>
<path d="M243.353 243.069L235.607 225.81C235.025 224.513 233.502 223.934 232.206 224.516L225.298 227.616C224.001 228.198 223.422 229.721 224.004 231.017L231.75 248.276C232.331 249.573 233.854 250.152 235.151 249.57L242.059 246.47C243.355 245.888 243.935 244.366 243.353 243.069Z" fill="white" stroke="#263238" stroke-linecap="round" stroke-linejoin="round"/>
<path d="M204.009 264.371L192.149 239.346C192.059 239.16 192.009 238.957 192 238.751C191.991 238.544 192.024 238.338 192.096 238.145C192.169 237.952 192.28 237.775 192.423 237.626C192.565 237.476 192.737 237.357 192.926 237.276C193.11 237.186 193.309 237.134 193.512 237.122C193.715 237.11 193.919 237.138 194.112 237.205C194.304 237.272 194.481 237.376 194.633 237.512C194.785 237.648 194.909 237.813 194.997 237.996L206.857 263.021C207.03 263.392 207.05 263.815 206.913 264.201C206.776 264.586 206.493 264.902 206.125 265.08C205.94 265.177 205.738 265.236 205.53 265.252C205.322 265.269 205.113 265.244 204.916 265.177C204.718 265.111 204.536 265.005 204.38 264.867C204.224 264.728 204.098 264.559 204.009 264.371Z" fill="white" stroke="#263238" stroke-linecap="round" stroke-linejoin="round"/>
<path d="M192.447 240.341L155.424 270.65C154.865 271.105 154.478 271.738 154.328 272.443C154.178 273.149 154.275 273.884 154.601 274.527L157.048 279.399C157.407 280.114 158.022 280.667 158.771 280.947C159.52 281.227 160.346 281.213 161.086 280.909L203.758 263.364L202.157 260.528L174.433 265.515L194.162 244.344L192.447 240.341Z" fill="white" stroke="#263238" stroke-linecap="round" stroke-linejoin="round"/>
<path d="M234.709 251.801C234.294 251.447 233.756 251.272 233.212 251.312C232.668 251.353 232.162 251.607 231.804 252.018C227.481 256.238 222.344 259.534 216.707 261.706C213.053 263.196 209.309 264.456 205.498 265.48C204.537 265.72 203.577 265.961 202.616 266.132C200.328 266.544 196.6 267.447 196.897 270.432C196.958 271.181 197.29 271.881 197.83 272.403C198.37 272.924 199.081 273.231 199.831 273.266C200.581 273.301 201.318 273.062 201.904 272.593C202.49 272.124 202.886 271.458 203.016 270.718C208.303 269.653 213.469 268.055 218.434 265.949C224.746 263.546 230.407 259.695 234.961 254.706C235.135 254.499 235.267 254.26 235.349 254.001C235.431 253.743 235.461 253.471 235.438 253.201C235.414 252.932 235.338 252.669 235.213 252.429C235.088 252.188 234.917 251.975 234.709 251.801Z" fill="white" stroke="#263238" stroke-linecap="round" stroke-linejoin="round"/>
<path d="M191.02 280.738C190.966 280.127 190.731 279.546 190.347 279.069C189.963 278.592 189.445 278.239 188.86 278.055C188.276 277.872 187.649 277.866 187.061 278.038C186.473 278.211 185.949 278.554 185.556 279.024C185.162 279.494 184.917 280.07 184.851 280.68C184.785 281.289 184.902 281.904 185.185 282.448C185.469 282.991 185.908 283.438 186.445 283.732C186.983 284.026 187.596 284.154 188.207 284.1C188.612 284.064 189.007 283.949 189.368 283.76C189.728 283.572 190.049 283.314 190.31 283.002C190.571 282.69 190.768 282.329 190.89 281.94C191.012 281.552 191.056 281.143 191.02 280.738Z" fill="white" stroke="#263238" stroke-linecap="round" stroke-linejoin="round"/>
<path d="M214.188 283.997C214.134 283.386 213.899 282.805 213.514 282.328C213.129 281.85 212.611 281.498 212.025 281.315C211.44 281.132 210.813 281.127 210.225 281.301C209.636 281.474 209.113 281.818 208.72 282.289C208.327 282.761 208.083 283.338 208.019 283.948C207.954 284.558 208.072 285.173 208.358 285.716C208.643 286.259 209.083 286.705 209.623 286.998C210.162 287.29 210.775 287.416 211.386 287.36C212.203 287.285 212.957 286.888 213.482 286.258C214.008 285.628 214.262 284.815 214.188 283.997Z" fill="white" stroke="#263238" stroke-linecap="round" stroke-linejoin="round"/>
<path d="M307.246 191.549L305.896 192.201L310.871 203.467L312.209 202.781L307.246 191.549Z" fill="white" stroke="#263238" stroke-linecap="round" stroke-linejoin="round"/>
<path d="M316.334 187.112L314.996 187.764L319.88 198.823L321.218 198.137L316.334 187.112Z" fill="white" stroke="#263238" stroke-linecap="round" stroke-linejoin="round"/>
<path d="M295.441 197.302L294.092 197.954L299.204 209.483L300.531 208.797L295.441 197.302Z" fill="white" stroke="#263238" stroke-linecap="round" stroke-linejoin="round"/>
<path d="M325.439 182.674L324.101 183.326L328.893 194.191L330.22 193.505L325.439 182.674Z" fill="white" stroke="#263238" stroke-linecap="round" stroke-linejoin="round"/>
<path d="M284.312 202.724L282.963 203.376L288.189 215.156L289.528 214.47L284.312 202.724Z" fill="white" stroke="#263238" stroke-linecap="round" stroke-linejoin="round"/>
<path d="M275.845 221.504L277.184 220.818L271.831 208.808L270.481 209.46L275.845 221.504Z" fill="white" stroke="#263238" stroke-linecap="round" stroke-linejoin="round"/>
<path d="M334.544 178.236L333.195 178.888L337.895 189.548L339.233 188.862L334.544 178.236Z" fill="white" stroke="#263238" stroke-linecap="round" stroke-linejoin="round"/>
<path d="M380.065 156.048L378.716 156.7L383.371 166.479L384.698 165.793L380.065 156.048Z" fill="white" stroke="#263238" stroke-linecap="round" stroke-linejoin="round"/>
<path d="M361.856 164.923L360.506 165.575L365.356 175.766L366.683 175.08L361.856 164.923Z" fill="white" stroke="#263238" stroke-linecap="round" stroke-linejoin="round"/>
<path d="M370.96 160.486L369.611 161.138L374.357 171.122L375.695 170.436L370.96 160.486Z" fill="white" stroke="#263238" stroke-linecap="round" stroke-linejoin="round"/>
<path d="M343.65 173.799L342.301 174.451L347.345 185.042L348.671 184.355L343.65 173.799Z" fill="white" stroke="#263238" stroke-linecap="round" stroke-linejoin="round"/>
<path d="M352.763 169.361L351.413 170.024L356.343 180.398L357.681 179.712L352.763 169.361Z" fill="white" stroke="#263238" stroke-linecap="round" stroke-linejoin="round"/>
<path d="M390.508 151.817L196.955 248.05" stroke="white" stroke-width="0.5" stroke-linecap="round" stroke-linejoin="round"/>
<path d="M391.593 153.44L198.04 249.674" stroke="white" stroke-width="0.5" stroke-linecap="round" stroke-linejoin="round"/>
<path d="M392.669 155.076L199.127 251.31" stroke="white" stroke-width="0.5" stroke-linecap="round" stroke-linejoin="round"/>
<path d="M393.757 156.7L200.215 252.934" stroke="white" stroke-width="0.5" stroke-linecap="round" stroke-linejoin="round"/>
<path d="M394.844 158.325L201.302 254.558" stroke="white" stroke-width="0.5" stroke-linecap="round" stroke-linejoin="round"/>
<path d="M395.93 159.96L202.388 256.193" stroke="white" stroke-width="0.5" stroke-linecap="round" stroke-linejoin="round"/>
<path d="M389.649 151.405L392.806 139.601C392.806 139.601 402.791 141.809 414.8 130.875C420.481 136.763 424.142 144.305 425.254 152.411C425.254 152.411 408.246 156.254 404.895 164.901L394.098 160.989L389.649 151.405Z" fill="#263238" stroke="#263238" stroke-linecap="round" stroke-linejoin="round"/>
<path d="M400.825 146.349C400.787 146.003 400.646 145.675 400.421 145.409C400.196 145.142 399.897 144.948 399.562 144.852C399.226 144.755 398.87 144.761 398.538 144.867C398.206 144.973 397.912 145.176 397.695 145.449C397.479 145.722 397.348 146.054 397.319 146.402C397.291 146.749 397.367 147.098 397.536 147.402C397.706 147.707 397.963 147.954 398.273 148.113C398.584 148.272 398.935 148.335 399.281 148.294C399.743 148.239 400.165 148.004 400.454 147.64C400.743 147.276 400.877 146.812 400.825 146.349Z" fill="white" stroke="#263238" stroke-linecap="round" stroke-linejoin="round"/>
<path d="M406.518 143.582C406.48 143.235 406.34 142.908 406.116 142.642C405.891 142.375 405.593 142.181 405.258 142.084C404.924 141.987 404.568 141.991 404.236 142.096C403.903 142.202 403.61 142.403 403.392 142.675C403.175 142.947 403.043 143.278 403.013 143.625C402.983 143.972 403.057 144.32 403.225 144.625C403.393 144.931 403.648 145.179 403.957 145.339C404.267 145.5 404.617 145.565 404.963 145.526C405.427 145.474 405.851 145.24 406.143 144.876C406.435 144.511 406.57 144.046 406.518 143.582Z" fill="white" stroke="#263238" stroke-linecap="round" stroke-linejoin="round"/>
<path d="M412.216 140.802C412.177 140.456 412.037 140.129 411.813 139.862C411.588 139.595 411.29 139.401 410.955 139.304C410.621 139.207 410.265 139.212 409.933 139.317C409.601 139.422 409.307 139.624 409.09 139.896C408.872 140.168 408.74 140.498 408.71 140.845C408.68 141.193 408.754 141.541 408.922 141.846C409.09 142.151 409.345 142.4 409.655 142.56C409.964 142.72 410.314 142.785 410.66 142.747C411.124 142.695 411.549 142.461 411.84 142.096C412.132 141.732 412.267 141.266 412.216 140.802Z" fill="white" stroke="#263238" stroke-linecap="round" stroke-linejoin="round"/>
<path d="M405.344 155.842C405.306 155.496 405.165 155.168 404.94 154.901C404.715 154.635 404.416 154.441 404.081 154.345C403.745 154.248 403.389 154.253 403.057 154.36C402.724 154.466 402.431 154.669 402.214 154.942C401.997 155.215 401.866 155.547 401.838 155.894C401.81 156.242 401.885 156.59 402.055 156.895C402.225 157.2 402.482 157.447 402.792 157.606C403.103 157.765 403.454 157.827 403.8 157.787C404.262 157.732 404.684 157.497 404.973 157.133C405.262 156.768 405.396 156.305 405.344 155.842Z" fill="white" stroke="#263238" stroke-linecap="round" stroke-linejoin="round"/>
<path d="M411.037 153.075C410.999 152.728 410.859 152.401 410.634 152.135C410.41 151.868 410.112 151.674 409.777 151.577C409.443 151.48 409.087 151.484 408.755 151.59C408.422 151.695 408.129 151.896 407.911 152.168C407.694 152.44 407.562 152.771 407.532 153.118C407.502 153.465 407.576 153.813 407.744 154.118C407.912 154.424 408.167 154.672 408.476 154.832C408.786 154.993 409.136 155.058 409.482 155.019C409.946 154.967 410.37 154.733 410.662 154.369C410.954 154.004 411.089 153.539 411.037 153.075Z" fill="white" stroke="#263238" stroke-linecap="round" stroke-linejoin="round"/>
<path d="M416.732 150.353C416.693 150.006 416.553 149.679 416.329 149.412C416.104 149.146 415.806 148.952 415.471 148.855C415.137 148.758 414.781 148.762 414.449 148.867C414.117 148.973 413.823 149.174 413.606 149.446C413.388 149.718 413.256 150.049 413.226 150.396C413.196 150.743 413.27 151.091 413.438 151.396C413.606 151.701 413.861 151.95 414.171 152.11C414.48 152.271 414.83 152.335 415.176 152.297C415.64 152.245 416.065 152.011 416.356 151.647C416.648 151.282 416.783 150.817 416.732 150.353Z" fill="white" stroke="#263238" stroke-linecap="round" stroke-linejoin="round"/>
<path d="M363.664 176.658C363.664 176.658 356.904 166.365 357.007 165.221C357.476 160.463 365.094 171.534 366.843 173.296C368.593 175.057 368.25 177.161 366.489 179.266C364.728 181.37 353.164 182.068 353.164 182.068L363.664 176.658Z" fill="white" stroke="#263238" stroke-linecap="round" stroke-linejoin="round"/>
<path d="M367.998 173.708C367.998 173.708 362.142 164.638 363.949 162.888C366.523 160.406 366.98 164.306 368.799 167.646C370.617 170.985 372.436 173.81 371.326 174.817C369.291 176.658 367.998 173.708 367.998 173.708Z" fill="white" stroke="#263238" stroke-linecap="round" stroke-linejoin="round"/>
<path d="M371.637 171.386C371.637 171.386 366.342 161.321 367.588 160.566C368.835 159.811 370.619 161.984 372.438 165.313C374.256 168.641 376.086 171.477 374.965 172.495C372.93 174.371 371.637 171.386 371.637 171.386Z" fill="white" stroke="#263238" stroke-linecap="round" stroke-linejoin="round"/>
<path d="M376.278 172.792C376.278 172.792 371.52 162.762 372.241 161.984C373.979 160.085 375.271 163.391 377.09 166.73C378.908 170.07 380.727 172.895 379.618 173.902C377.57 175.766 376.278 172.792 376.278 172.792Z" fill="white" stroke="#263238" stroke-linecap="round" stroke-linejoin="round"/>
<path d="M187.966 116.601C187.966 116.601 177.867 122.686 168.031 130.063C158.195 137.44 123.768 221.744 125.53 224.912C127.291 228.081 216.857 239.667 222.827 240.719C228.797 241.771 231.977 243.178 235.82 242.114C239.662 241.05 244.26 235.446 244.26 235.446C244.26 235.446 248.835 234.749 249.521 232.29C250.208 229.83 248.115 229.83 245.656 228.767C243.197 227.703 241.447 224.192 239.685 222.453C237.924 220.715 229.506 222.797 226.338 224.203C223.17 225.61 217.909 228.069 215.095 228.424C212.282 228.778 196.132 226.662 182.076 218.931C168.019 211.199 163.776 208.752 161.706 206.99C159.636 205.229 193.319 152.194 193.319 152.194" fill="#FF4C29"/>
<path d="M187.966 116.601C187.966 116.601 177.867 122.686 168.031 130.063C158.195 137.44 123.768 221.744 125.53 224.912C127.291 228.081 216.857 239.667 222.827 240.719C228.797 241.771 231.977 243.178 235.82 242.114C239.662 241.05 244.26 235.446 244.26 235.446C244.26 235.446 248.835 234.749 249.521 232.29C250.208 229.83 248.115 229.83 245.656 228.767C243.197 227.703 241.447 224.192 239.685 222.453C237.924 220.715 229.506 222.797 226.338 224.203C223.17 225.61 217.909 228.069 215.095 228.424C212.282 228.778 196.132 226.662 182.076 218.931C168.019 211.199 163.776 208.752 161.706 206.99C159.636 205.229 193.319 152.194 193.319 152.194" stroke="#263238" stroke-linecap="round" stroke-linejoin="round"/>
<path d="M249.52 232.289C250.23 229.83 248.114 229.83 245.655 228.767C243.196 227.703 241.446 224.192 239.684 222.453C237.923 220.715 229.505 222.796 226.337 224.203C223.169 225.61 217.908 228.069 215.094 228.423C212.281 228.778 196.131 226.662 182.075 218.93C168.018 211.199 163.775 208.751 161.705 206.99C161.019 206.418 164.152 200.391 168.67 192.533C158.851 191.126 149.328 188.124 140.477 183.646C131.739 204.359 124.705 223.437 125.529 224.912C127.279 228.069 216.856 239.666 222.826 240.719C228.796 241.771 231.976 243.178 235.819 242.114C239.662 241.05 244.259 235.446 244.259 235.446C244.259 235.446 248.823 234.748 249.52 232.289Z" fill="white" stroke="#263238" stroke-linecap="round" stroke-linejoin="round"/>
<path d="M161.706 206.99C161.706 206.99 150.074 203.502 142.137 212.491" stroke="#263238" stroke-linecap="round" stroke-linejoin="round"/>
<path d="M138.759 187.741C148.206 191.95 161.531 193.872 167.501 194.604C169.434 191.172 171.687 187.352 174.055 183.407C163.685 182.283 153.539 179.623 143.952 175.515C142.179 179.632 140.429 183.738 138.759 187.741Z" fill="#263238" stroke="#263238" stroke-linecap="round" stroke-linejoin="round"/>
</svg>
